<mxfile host="65bd71144e">
    <diagram id="PJP29Ces6krjpxRetGwr" name="Page-1">
        <mxGraphModel dx="1911" dy="2558" grid="1" gridSize="10" guides="1" tooltips="1" connect="1" arrows="1" fold="1" page="1" pageScale="1" pageWidth="827" pageHeight="1169" math="0" shadow="0">
            <root>
                <mxCell id="0"/>
                <mxCell id="1" parent="0"/>
                <mxCell id="2" style="edgeStyle=orthogonalEdgeStyle;rounded=0;html=1;entryX=0;entryY=0.5;entryDx=0;entryDy=0;entryPerimeter=0;strokeColor=default;fontColor=default;endArrow=none;endFill=0;dashed=1;" parent="1" source="3" target="25" edge="1">
                    <mxGeometry relative="1" as="geometry"/>
                </mxCell>
                <mxCell id="3" value="" style="rounded=0;whiteSpace=wrap;html=1;dashed=1;" parent="1" vertex="1">
                    <mxGeometry x="534" y="-1012.5699999999999" width="160" height="159.5" as="geometry"/>
                </mxCell>
                <mxCell id="4" style="edgeStyle=none;html=1;exitX=1;exitY=0.5;exitDx=0;exitDy=0;entryX=0;entryY=0.5;entryDx=0;entryDy=0;entryPerimeter=0;endArrow=none;endFill=0;dashed=1;" parent="1" source="5" target="18" edge="1">
                    <mxGeometry relative="1" as="geometry"/>
                </mxCell>
                <mxCell id="5" value="" style="rounded=0;whiteSpace=wrap;html=1;dashed=1;" parent="1" vertex="1">
                    <mxGeometry x="80" y="-984.9999999999999" width="160" height="400" as="geometry"/>
                </mxCell>
                <mxCell id="6" style="edgeStyle=none;html=1;exitX=1;exitY=0.5;exitDx=0;exitDy=0;entryX=0;entryY=0.5;entryDx=0;entryDy=0;entryPerimeter=0;dashed=1;endArrow=none;endFill=0;" parent="1" source="8" target="9" edge="1">
                    <mxGeometry relative="1" as="geometry"/>
                </mxCell>
                <mxCell id="7" style="edgeStyle=none;html=1;endArrow=none;endFill=0;" parent="1" source="8" target="11" edge="1">
                    <mxGeometry relative="1" as="geometry"/>
                </mxCell>
                <mxCell id="8" value="Начало" style="rounded=1;whiteSpace=wrap;html=1;arcSize=28;" parent="1" vertex="1">
                    <mxGeometry x="100" y="-1054" width="120" height="60" as="geometry"/>
                </mxCell>
                <mxCell id="9" value="Алгоритм теневых карт с фильтрацией (PCF)" style="strokeWidth=1;shape=mxgraph.flowchart.annotation_1;align=left;pointerEvents=1;whiteSpace=wrap;fontColor=default;" parent="1" vertex="1">
                    <mxGeometry x="260" y="-1074" width="39" height="100" as="geometry"/>
                </mxCell>
                <mxCell id="10" style="edgeStyle=none;html=1;endArrow=none;endFill=0;" parent="1" source="11" target="13" edge="1">
                    <mxGeometry relative="1" as="geometry"/>
                </mxCell>
                <mxCell id="11" value="Инициализировать теневую карту" style="rounded=0;whiteSpace=wrap;" parent="1" vertex="1">
                    <mxGeometry x="100" y="-973.9999999999999" width="120" height="60" as="geometry"/>
                </mxCell>
                <mxCell id="12" style="edgeStyle=none;html=1;endArrow=none;endFill=0;" parent="1" source="13" target="15" edge="1">
                    <mxGeometry relative="1" as="geometry"/>
                </mxCell>
                <mxCell id="13" value="Инициализировать источник света" style="rounded=0;whiteSpace=wrap;" parent="1" vertex="1">
                    <mxGeometry x="100" y="-894.4999999999999" width="120" height="60" as="geometry"/>
                </mxCell>
                <mxCell id="14" style="edgeStyle=none;html=1;endArrow=none;endFill=0;" parent="1" source="15" target="17" edge="1">
                    <mxGeometry relative="1" as="geometry"/>
                </mxCell>
                <mxCell id="15" value="Инициализировать камеру" style="rounded=0;whiteSpace=wrap;" parent="1" vertex="1">
                    <mxGeometry x="100" y="-814.9999999999999" width="120" height="60" as="geometry"/>
                </mxCell>
                <mxCell id="16" style="edgeStyle=none;html=1;endArrow=none;endFill=0;" parent="1" source="17" target="20" edge="1">
                    <mxGeometry relative="1" as="geometry"/>
                </mxCell>
                <mxCell id="17" value="Инициализировать модели" style="rounded=0;whiteSpace=wrap;" parent="1" vertex="1">
                    <mxGeometry x="100" y="-734.9999999999999" width="120" height="60" as="geometry"/>
                </mxCell>
                <mxCell id="18" value="Подготовительный этап, инициализирующий минимально необходимые данные" style="strokeWidth=1;shape=mxgraph.flowchart.annotation_1;align=left;pointerEvents=1;whiteSpace=wrap;labelBorderColor=none;labelBackgroundColor=none;spacing=2;" parent="1" vertex="1">
                    <mxGeometry x="260" y="-843.0699999999999" width="39" height="117.14" as="geometry"/>
                </mxCell>
                <mxCell id="88" style="edgeStyle=none;html=1;endArrow=blockThin;endFill=1;" edge="1" parent="1" source="20" target="87">
                    <mxGeometry relative="1" as="geometry"/>
                </mxCell>
                <mxCell id="20" value="Инициализировать&#10;шейдеры" style="rounded=0;whiteSpace=wrap;" parent="1" vertex="1">
                    <mxGeometry x="100" y="-654.9999999999999" width="120" height="60" as="geometry"/>
                </mxCell>
                <mxCell id="21" style="edgeStyle=orthogonalEdgeStyle;rounded=0;html=1;strokeColor=default;fontColor=default;endArrow=none;endFill=0;" parent="1" source="22" target="24" edge="1">
                    <mxGeometry relative="1" as="geometry"/>
                </mxCell>
                <mxCell id="22" value="Нарисовать сцену, с точки зрения источника света" style="rounded=0;whiteSpace=wrap;" parent="1" vertex="1">
                    <mxGeometry x="554" y="-1002.0699999999999" width="120" height="60" as="geometry"/>
                </mxCell>
                <mxCell id="23" style="edgeStyle=orthogonalEdgeStyle;rounded=0;html=1;exitX=0.5;exitY=1;exitDx=0;exitDy=0;strokeColor=default;fontColor=default;endArrow=none;endFill=0;" parent="1" source="24" edge="1">
                    <mxGeometry relative="1" as="geometry">
                        <mxPoint x="614" y="-833.0699999999999" as="targetPoint"/>
                    </mxGeometry>
                </mxCell>
                <mxCell id="24" value="Заполнить теневую карту значениями глубины" style="rounded=0;whiteSpace=wrap;" parent="1" vertex="1">
                    <mxGeometry x="554" y="-922.0699999999999" width="120" height="60" as="geometry"/>
                </mxCell>
                <mxCell id="25" value="Этап заполнения теневой карты" style="strokeWidth=1;shape=mxgraph.flowchart.annotation_1;align=left;pointerEvents=1;whiteSpace=wrap;fontColor=default;" parent="1" vertex="1">
                    <mxGeometry x="714" y="-982.8199999999999" width="39" height="100" as="geometry"/>
                </mxCell>
                <mxCell id="26" style="edgeStyle=orthogonalEdgeStyle;rounded=0;html=1;strokeColor=default;fontColor=default;endArrow=none;endFill=0;" parent="1" source="27" target="32" edge="1">
                    <mxGeometry relative="1" as="geometry"/>
                </mxCell>
                <mxCell id="27" value="Обработка N пикселей" style="shape=loopLimit;whiteSpace=wrap;html=1;labelBackgroundColor=none;labelBorderColor=none;fontColor=default;" parent="1" vertex="1">
                    <mxGeometry x="554" y="-833.0699999999999" width="120" height="50" as="geometry"/>
                </mxCell>
                <mxCell id="31" style="edgeStyle=orthogonalEdgeStyle;rounded=0;html=1;entryX=0;entryY=0.5;entryDx=0;entryDy=0;entryPerimeter=0;strokeColor=default;fontColor=default;endArrow=none;endFill=0;dashed=1;" parent="1" source="32" target="36" edge="1">
                    <mxGeometry relative="1" as="geometry"/>
                </mxCell>
                <mxCell id="50" style="edgeStyle=none;html=1;endArrow=none;endFill=0;" parent="1" source="32" target="49" edge="1">
                    <mxGeometry relative="1" as="geometry"/>
                </mxCell>
                <mxCell id="32" value="Преобразовать координаты фрагмента в пространство света " style="rounded=0;whiteSpace=wrap;" parent="1" vertex="1">
                    <mxGeometry x="554" y="-763.0699999999999" width="120" height="60" as="geometry"/>
                </mxCell>
                <mxCell id="36" value="Далее&#10;d1" style="strokeWidth=1;shape=mxgraph.flowchart.annotation_1;align=left;pointerEvents=1;whiteSpace=wrap;fontColor=default;" parent="1" vertex="1">
                    <mxGeometry x="704" y="-763.5699999999999" width="40" height="61" as="geometry"/>
                </mxCell>
                <mxCell id="46" value="Конец" style="rounded=1;whiteSpace=wrap;html=1;arcSize=28;" parent="1" vertex="1">
                    <mxGeometry x="100" y="-154" width="120" height="60" as="geometry"/>
                </mxCell>
                <mxCell id="53" style="edgeStyle=none;html=1;endArrow=none;endFill=0;" parent="1" source="47" target="52" edge="1">
                    <mxGeometry relative="1" as="geometry"/>
                </mxCell>
                <mxCell id="47" value="Обработка, MxM окаймляющих пикселей" style="shape=loopLimit;whiteSpace=wrap;html=1;labelBackgroundColor=none;labelBorderColor=none;fontColor=default;" parent="1" vertex="1">
                    <mxGeometry x="554" y="-603.0699999999999" width="120" height="50" as="geometry"/>
                </mxCell>
                <mxCell id="51" style="edgeStyle=none;html=1;endArrow=none;endFill=0;" parent="1" source="49" target="47" edge="1">
                    <mxGeometry relative="1" as="geometry"/>
                </mxCell>
                <mxCell id="57" style="edgeStyle=none;html=1;dashed=1;endArrow=none;endFill=0;" parent="1" source="49" target="56" edge="1">
                    <mxGeometry relative="1" as="geometry"/>
                </mxCell>
                <mxCell id="49" value="aver = 0" style="rounded=0;whiteSpace=wrap;" parent="1" vertex="1">
                    <mxGeometry x="554" y="-683.0699999999999" width="120" height="60" as="geometry"/>
                </mxCell>
                <mxCell id="55" style="edgeStyle=none;html=1;endArrow=none;endFill=0;dashed=1;" parent="1" source="52" target="54" edge="1">
                    <mxGeometry relative="1" as="geometry"/>
                </mxCell>
                <mxCell id="59" style="edgeStyle=none;html=1;endArrow=none;endFill=0;" parent="1" source="52" target="58" edge="1">
                    <mxGeometry relative="1" as="geometry"/>
                </mxCell>
                <mxCell id="52" value="Считать соответствующую глубину в окрестности " style="rounded=0;whiteSpace=wrap;" parent="1" vertex="1">
                    <mxGeometry x="554" y="-533.0699999999999" width="120" height="60" as="geometry"/>
                </mxCell>
                <mxCell id="54" value="Далее&#10;d2" style="strokeWidth=1;shape=mxgraph.flowchart.annotation_1;align=left;pointerEvents=1;whiteSpace=wrap;fontColor=default;" parent="1" vertex="1">
                    <mxGeometry x="704" y="-534.0699999999999" width="40" height="61" as="geometry"/>
                </mxCell>
                <mxCell id="56" value="Количество перекрываемых глубин" style="strokeWidth=1;shape=mxgraph.flowchart.annotation_1;align=left;pointerEvents=1;whiteSpace=wrap;fontColor=default;" parent="1" vertex="1">
                    <mxGeometry x="704" y="-683.0699999999999" width="40" height="61" as="geometry"/>
                </mxCell>
                <mxCell id="63" style="edgeStyle=orthogonalEdgeStyle;html=1;exitX=1;exitY=0.5;exitDx=0;exitDy=0;endArrow=classic;endFill=1;rounded=0;" parent="1" source="58" target="60" edge="1">
                    <mxGeometry relative="1" as="geometry"/>
                </mxCell>
                <mxCell id="64" value="Да" style="edgeLabel;html=1;align=center;verticalAlign=middle;resizable=0;points=[];" parent="63" vertex="1" connectable="0">
                    <mxGeometry x="-0.5523" relative="1" as="geometry">
                        <mxPoint x="-9" y="-11" as="offset"/>
                    </mxGeometry>
                </mxCell>
                <mxCell id="68" style="edgeStyle=orthogonalEdgeStyle;rounded=0;html=1;exitX=0;exitY=0.5;exitDx=0;exitDy=0;endArrow=classic;endFill=1;" parent="1" source="58" target="65" edge="1">
                    <mxGeometry relative="1" as="geometry">
                        <Array as="points">
                            <mxPoint x="530" y="-423"/>
                            <mxPoint x="530" y="-294"/>
                            <mxPoint x="614" y="-294"/>
                        </Array>
                    </mxGeometry>
                </mxCell>
                <mxCell id="58" value="d1 &amp;gt; d2" style="rhombus;whiteSpace=wrap;html=1;labelBackgroundColor=none;labelBorderColor=none;fontColor=default;" parent="1" vertex="1">
                    <mxGeometry x="554" y="-452.99999999999994" width="120" height="60" as="geometry"/>
                </mxCell>
                <mxCell id="66" style="edgeStyle=orthogonalEdgeStyle;rounded=0;html=1;endArrow=classic;endFill=1;" parent="1" source="60" target="65" edge="1">
                    <mxGeometry relative="1" as="geometry">
                        <Array as="points">
                            <mxPoint x="693" y="-294"/>
                            <mxPoint x="614" y="-294"/>
                        </Array>
                    </mxGeometry>
                </mxCell>
                <mxCell id="60" value="aver += 1" style="rounded=0;whiteSpace=wrap;" parent="1" vertex="1">
                    <mxGeometry x="633" y="-373.99999999999994" width="120" height="60" as="geometry"/>
                </mxCell>
                <mxCell id="86" style="edgeStyle=orthogonalEdgeStyle;rounded=0;html=1;endArrow=none;endFill=0;" parent="1" source="65" target="85" edge="1">
                    <mxGeometry relative="1" as="geometry"/>
                </mxCell>
                <mxCell id="65" value="Пока остались&amp;nbsp; пиксели в окрестности" style="shape=loopLimit;whiteSpace=wrap;html=1;labelBackgroundColor=none;labelBorderColor=none;fontColor=default;direction=west;" parent="1" vertex="1">
                    <mxGeometry x="554" y="-274" width="120" height="50" as="geometry"/>
                </mxCell>
                <mxCell id="75" style="edgeStyle=orthogonalEdgeStyle;rounded=0;html=1;dashed=1;endArrow=none;endFill=0;" parent="1" source="69" target="71" edge="1">
                    <mxGeometry relative="1" as="geometry"/>
                </mxCell>
                <mxCell id="82" style="edgeStyle=orthogonalEdgeStyle;rounded=0;html=1;endArrow=none;endFill=0;" parent="1" source="69" target="81" edge="1">
                    <mxGeometry relative="1" as="geometry"/>
                </mxCell>
                <mxCell id="69" value="aver /= MxM" style="rounded=0;whiteSpace=wrap;" parent="1" vertex="1">
                    <mxGeometry x="100" y="-352.99999999999994" width="120" height="60" as="geometry"/>
                </mxCell>
                <mxCell id="71" value="Среднее арифметическое значение в диапазоне [0, 1]" style="strokeWidth=1;shape=mxgraph.flowchart.annotation_1;align=left;pointerEvents=1;whiteSpace=wrap;fontColor=default;" parent="1" vertex="1">
                    <mxGeometry x="260" y="-353.5" width="26" height="61" as="geometry"/>
                </mxCell>
                <mxCell id="78" value="Освещение применяется с учетом значения aver, на которое умножается диффузная и спекулярная состовляющие" style="strokeWidth=1;shape=mxgraph.flowchart.annotation_1;align=left;pointerEvents=1;fontColor=default;whiteSpace=wrap;" parent="1" vertex="1">
                    <mxGeometry x="260" y="-265" width="26" height="81" as="geometry"/>
                </mxCell>
                <mxCell id="83" style="edgeStyle=orthogonalEdgeStyle;rounded=0;html=1;endArrow=none;endFill=0;dashed=1;" parent="1" source="81" target="78" edge="1">
                    <mxGeometry relative="1" as="geometry"/>
                </mxCell>
                <mxCell id="84" style="edgeStyle=orthogonalEdgeStyle;rounded=0;html=1;endArrow=none;endFill=0;" parent="1" source="81" target="46" edge="1">
                    <mxGeometry relative="1" as="geometry"/>
                </mxCell>
                <mxCell id="81" value="Применить полное освещение" style="shape=process;whiteSpace=wrap;html=1;backgroundOutline=1;" parent="1" vertex="1">
                    <mxGeometry x="100" y="-255" width="120" height="60" as="geometry"/>
                </mxCell>
                <mxCell id="92" style="edgeStyle=none;html=1;endArrow=blockThin;endFill=1;" edge="1" parent="1" source="85" target="91">
                    <mxGeometry relative="1" as="geometry"/>
                </mxCell>
                <mxCell id="85" value="Пока остались необработанные пиксели" style="shape=loopLimit;whiteSpace=wrap;html=1;labelBackgroundColor=none;labelBorderColor=none;fontColor=default;direction=west;" parent="1" vertex="1">
                    <mxGeometry x="554" y="-204" width="120" height="50" as="geometry"/>
                </mxCell>
                <mxCell id="87" value="А" style="ellipse;whiteSpace=wrap;html=1;aspect=fixed;" vertex="1" parent="1">
                    <mxGeometry x="140" y="-555.9300000000001" width="40" height="40" as="geometry"/>
                </mxCell>
                <mxCell id="90" style="edgeStyle=none;html=1;entryX=0.5;entryY=0;entryDx=0;entryDy=0;endArrow=blockThin;endFill=1;" edge="1" parent="1" source="89" target="22">
                    <mxGeometry relative="1" as="geometry"/>
                </mxCell>
                <mxCell id="89" value="А" style="ellipse;whiteSpace=wrap;html=1;aspect=fixed;" vertex="1" parent="1">
                    <mxGeometry x="594" y="-1074" width="40" height="40" as="geometry"/>
                </mxCell>
                <mxCell id="91" value="Б" style="ellipse;whiteSpace=wrap;html=1;aspect=fixed;" vertex="1" parent="1">
                    <mxGeometry x="594" y="-134" width="40" height="40" as="geometry"/>
                </mxCell>
                <mxCell id="94" style="edgeStyle=none;html=1;endArrow=blockThin;endFill=1;" edge="1" parent="1" source="93" target="69">
                    <mxGeometry relative="1" as="geometry"/>
                </mxCell>
                <mxCell id="93" value="Б" style="ellipse;whiteSpace=wrap;html=1;aspect=fixed;" vertex="1" parent="1">
                    <mxGeometry x="140" y="-424" width="40" height="40" as="geometry"/>
                </mxCell>
            </root>
        </mxGraphModel>
    </diagram>
</mxfile>